<svg width="132" height="39" viewBox="0 0 132 39" fill="none" xmlns="http://www.w3.org/2000/svg">
<g filter="url(#filter0_d_909_10202)">
<path d="M56.9098 11.657C57.0775 12.2302 57.2593 12.8803 57.455 13.6073C57.6647 14.3202 57.8814 15.0612 58.1051 15.8301C58.3428 16.599 58.5804 17.3679 58.8181 18.1369C59.0558 18.9058 59.2864 19.6188 59.5101 20.2758C59.6919 19.5629 59.8736 18.7869 60.0553 17.9481C60.2511 17.1093 60.4328 16.2425 60.6006 15.3478C60.7683 14.4531 60.9291 13.5653 61.0829 12.6846C61.2507 11.7898 61.4044 10.93 61.5442 10.1052H64.9415C64.4521 12.5378 63.8859 15.0053 63.2428 17.5078C62.6137 20.0102 61.9287 22.3869 61.1877 24.6377H58.189C57.6997 23.2956 57.2243 21.8906 56.763 20.4226C56.3016 18.9407 55.8473 17.4588 55.3999 15.9769C54.9525 17.4588 54.5052 18.9407 54.0578 20.4226C53.6104 21.8906 53.1421 23.2956 52.6528 24.6377H49.654C48.9131 22.3869 48.221 20.0102 47.5779 17.5078C46.9488 15.0053 46.3896 12.5378 45.9003 10.1052H49.4443C49.5841 10.93 49.7379 11.7898 49.9057 12.6846C50.0734 13.5653 50.2482 14.4531 50.4299 15.3478C50.6117 16.2425 50.7934 17.1093 50.9751 17.9481C51.1709 18.7869 51.3666 19.5629 51.5623 20.2758C51.814 19.5908 52.0586 18.8638 52.2963 18.0949C52.5339 17.326 52.7646 16.5571 52.9883 15.7882C53.212 15.0193 53.4147 14.2783 53.5965 13.5653C53.7922 12.8523 53.9669 12.2162 54.1207 11.657H56.9098ZM76.455 19.1015C76.455 19.9683 76.3292 20.7652 76.0776 21.4921C75.8259 22.2051 75.4624 22.8203 74.9871 23.3375C74.5118 23.8408 73.9386 24.2323 73.2675 24.5119C72.6105 24.7915 71.8695 24.9313 71.0447 24.9313C70.2338 24.9313 69.4929 24.7915 68.8218 24.5119C68.1647 24.2323 67.5985 23.8408 67.1232 23.3375C66.6479 22.8203 66.2774 22.2051 66.0118 21.4921C65.7461 20.7652 65.6133 19.9683 65.6133 19.1015C65.6133 18.2347 65.7461 17.4448 66.0118 16.7318C66.2914 16.0189 66.6688 15.4107 67.1442 14.9074C67.6335 14.4041 68.2067 14.0127 68.8637 13.7331C69.5348 13.4535 70.2618 13.3137 71.0447 13.3137C71.8415 13.3137 72.5685 13.4535 73.2256 13.7331C73.8966 14.0127 74.4698 14.4041 74.9452 14.9074C75.4205 15.4107 75.791 16.0189 76.0566 16.7318C76.3222 17.4448 76.455 18.2347 76.455 19.1015ZM73.2675 19.1015C73.2675 18.1369 73.0718 17.3819 72.6804 16.8367C72.3029 16.2775 71.7577 15.9979 71.0447 15.9979C70.3317 15.9979 69.7794 16.2775 69.388 16.8367C68.9966 17.3819 68.8008 18.1369 68.8008 19.1015C68.8008 20.0661 68.9966 20.8351 69.388 21.4082C69.7794 21.9675 70.3317 22.2471 71.0447 22.2471C71.7577 22.2471 72.3029 21.9675 72.6804 21.4082C73.0718 20.8351 73.2675 20.0661 73.2675 19.1015ZM78.8755 13.9847C79.4067 13.8309 80.0918 13.6911 80.9306 13.5653C81.7694 13.4255 82.6502 13.3556 83.5729 13.3556C84.5095 13.3556 85.2854 13.4814 85.9006 13.7331C86.5297 13.9707 87.026 14.3133 87.3895 14.7606C87.753 15.208 88.0116 15.7392 88.1654 16.3544C88.3192 16.9695 88.3961 17.6545 88.3961 18.4095V24.6377H85.2715V18.7869C85.2715 17.7804 85.1386 17.0674 84.873 16.648C84.6074 16.2286 84.1111 16.0189 83.3841 16.0189C83.1604 16.0189 82.9228 16.0328 82.6711 16.0608C82.4195 16.0748 82.1958 16.0957 82.0001 16.1237V24.6377H78.8755V13.9847Z" fill="#1F0235"/>
<path d="M95.7958 9.93743C97.9628 9.93743 99.6264 10.3219 100.787 11.0908C101.947 11.8457 102.527 13.09 102.527 14.8235C102.527 16.5711 101.94 17.8363 100.766 18.6192C99.5915 19.3881 97.9138 19.7726 95.7329 19.7726H94.7054V24.6377H91.434V10.3149C92.147 10.1751 92.9019 10.0772 93.6988 10.0213C94.4957 9.96539 95.1947 9.93743 95.7958 9.93743ZM96.0055 12.7265C95.7679 12.7265 95.5302 12.7335 95.2925 12.7475C95.0689 12.7614 94.8731 12.7754 94.7054 12.7894V16.9835H95.7329C96.8653 16.9835 97.7181 16.8297 98.2913 16.5221C98.8645 16.2146 99.1511 15.6414 99.1511 14.8026C99.1511 14.3971 99.0742 14.0616 98.9204 13.796C98.7806 13.5304 98.5709 13.3207 98.2913 13.1669C98.0257 12.9991 97.6971 12.8873 97.3057 12.8313C96.9142 12.7614 96.4809 12.7265 96.0055 12.7265ZM108.525 22.4568C108.833 22.4568 109.127 22.4498 109.406 22.4358C109.686 22.4218 109.909 22.4008 110.077 22.3729V20.0032C109.951 19.9753 109.763 19.9473 109.511 19.9193C109.259 19.8914 109.029 19.8774 108.819 19.8774C108.525 19.8774 108.246 19.8984 107.98 19.9403C107.728 19.9683 107.505 20.0312 107.309 20.1291C107.113 20.2269 106.96 20.3597 106.848 20.5275C106.736 20.6953 106.68 20.905 106.68 21.1566C106.68 21.6459 106.841 21.9884 107.162 22.1842C107.498 22.3659 107.952 22.4568 108.525 22.4568ZM108.274 13.3137C109.196 13.3137 109.965 13.4185 110.58 13.6282C111.196 13.8379 111.685 14.1385 112.048 14.53C112.426 14.9214 112.691 15.3967 112.845 15.9559C112.999 16.5152 113.076 17.1373 113.076 17.8223V24.3231C112.629 24.421 112.006 24.5328 111.21 24.6587C110.413 24.7985 109.448 24.8684 108.316 24.8684C107.603 24.8684 106.953 24.8055 106.365 24.6796C105.792 24.5538 105.296 24.3511 104.877 24.0715C104.457 23.7779 104.136 23.4004 103.912 22.9391C103.688 22.4777 103.576 21.9115 103.576 21.2405C103.576 20.5974 103.702 20.0522 103.954 19.6048C104.219 19.1574 104.569 18.8009 105.002 18.5353C105.436 18.2697 105.932 18.0809 106.491 17.9691C107.05 17.8433 107.631 17.7804 108.232 17.7804C108.637 17.7804 108.994 17.8013 109.301 17.8433C109.623 17.8712 109.881 17.9132 110.077 17.9691V17.6755C110.077 17.1443 109.916 16.7179 109.595 16.3963C109.273 16.0748 108.714 15.914 107.917 15.914C107.386 15.914 106.862 15.9559 106.344 16.0398C105.827 16.1097 105.38 16.2146 105.002 16.3544L104.604 13.8379C104.786 13.782 105.009 13.7261 105.275 13.6702C105.555 13.6003 105.855 13.5443 106.177 13.5024C106.498 13.4465 106.834 13.4045 107.183 13.3766C107.547 13.3346 107.91 13.3137 108.274 13.3137ZM125.428 13.6073C124.799 15.7323 124.142 17.7244 123.457 19.5838C122.772 21.4432 122.024 23.2467 121.213 24.9942C120.92 25.6233 120.626 26.1546 120.333 26.5879C120.039 27.0353 119.717 27.3988 119.368 27.6784C119.018 27.972 118.62 28.1817 118.173 28.3075C117.739 28.4473 117.229 28.5172 116.642 28.5172C116.152 28.5172 115.698 28.4683 115.279 28.3704C114.873 28.2865 114.538 28.1887 114.272 28.0768L114.817 25.5814C115.139 25.6932 115.425 25.7701 115.677 25.812C115.929 25.854 116.194 25.875 116.474 25.875C117.033 25.875 117.46 25.7212 117.753 25.4136C118.061 25.12 118.319 24.7076 118.529 24.1763C117.816 22.7783 117.103 21.2125 116.39 19.479C115.677 17.7314 115.006 15.7742 114.377 13.6073H117.69C117.83 14.1525 117.991 14.7466 118.173 15.3897C118.368 16.0189 118.571 16.6619 118.781 17.319C118.99 17.9621 119.2 18.5912 119.41 19.2064C119.634 19.8215 119.843 20.3807 120.039 20.884C120.221 20.3807 120.409 19.8215 120.605 19.2064C120.801 18.5912 120.99 17.9621 121.171 17.319C121.367 16.6619 121.549 16.0189 121.717 15.3897C121.898 14.7466 122.059 14.1525 122.199 13.6073H125.428Z" fill="#FFA800"/>
<path fill-rule="evenodd" clip-rule="evenodd" d="M38.9937 12.1965C38.7253 12.2655 38.4379 12.3394 38.2911 11.9057C36.4346 7.55108 33.4599 4.51281 28.7689 3.42643C26.4633 2.89246 24.1557 2.75256 21.8909 3.64151C21.8481 3.65832 21.8023 3.6729 21.7557 3.68772C21.5513 3.75283 21.3317 3.82273 21.279 4.1087C21.4764 4.30075 21.6808 4.23636 21.8759 4.17491C21.9328 4.15696 21.989 4.13926 22.044 4.12827C24.7109 3.59547 27.3189 3.89671 29.7591 5.00418C33.4652 6.68618 36.021 9.47463 37.153 13.4503C37.3112 14.0059 37.5806 14.1435 38.1269 14.0213C38.2456 13.9948 38.3637 13.9554 38.4841 13.9153C38.8254 13.8014 39.185 13.6815 39.628 13.8309C39.2798 14.4669 38.9469 15.1033 38.6139 15.7398C37.9402 17.0274 37.2663 18.3152 36.4668 19.6008L31.7663 14.4635C32.1628 14.3407 32.5233 14.3712 32.8614 14.3997C33.2087 14.429 33.5323 14.4564 33.847 14.3137C33.9556 13.8724 33.8065 13.4822 33.6607 13.1008C33.6403 13.0473 33.6199 12.9939 33.6003 12.9407C33.2044 11.8644 32.6766 10.8534 31.9558 9.95621C29.4185 6.7979 26.1403 4.95342 22.0735 5.01511C17.1426 5.08992 13.4728 7.60287 11.0752 11.7892C9.95671 13.742 8.91745 15.7406 7.87786 17.7398C7.0062 19.416 6.1343 21.0927 5.2153 22.7433C5.19722 22.7758 5.17754 22.8084 5.15767 22.8413C5.04008 23.0362 4.91573 23.2422 5.07678 23.4959C5.3067 23.6031 5.52738 23.5446 5.74506 23.4868C5.78857 23.4753 5.83197 23.4638 5.87529 23.4536C6.03534 23.4162 6.19552 23.3791 6.35571 23.3421C6.99319 23.1946 7.63084 23.0472 8.26063 22.8718C8.81438 22.7176 9.08695 22.8659 9.33298 23.4174C11.3675 27.9778 14.6854 30.9741 19.741 31.7829C21.7735 32.1081 23.7925 32.156 25.7327 31.3009C25.768 31.2854 25.8054 31.2714 25.8434 31.2572C26.0487 31.1806 26.2724 31.0972 26.2926 30.7134C26.0758 30.7475 25.864 30.7828 25.6555 30.8176C25.2162 30.8909 24.7915 30.9618 24.3643 31.0129C18.1966 31.7509 12.0351 27.6214 10.3894 21.6212C10.206 20.9523 9.91239 20.7872 9.275 20.9762C9.1954 20.9997 9.11499 21.0299 9.03384 21.0603C8.75361 21.1654 8.46437 21.2738 8.16798 21.1275C8.08389 20.9094 8.12006 20.739 8.20301 20.5829C8.27535 20.4468 8.34768 20.3107 8.42001 20.1746C9.16229 18.778 9.90458 17.3813 10.6564 15.9897C10.9186 15.5043 11.2399 15.6267 11.5408 15.959C11.7766 16.2193 12.0129 16.4791 12.2492 16.7389C13.0806 17.6531 13.9122 18.5673 14.7195 19.5024C14.7982 19.5937 14.8903 19.6771 14.983 19.7611C15.2162 19.9725 15.4536 20.1876 15.4935 20.5397C15.4736 20.5515 15.4556 20.5646 15.439 20.5767C15.4067 20.6003 15.3795 20.6202 15.3528 20.6195C15.0818 20.6132 14.8109 20.6017 14.54 20.5902C14.4641 20.587 14.3882 20.5838 14.3122 20.5807C13.5579 20.5499 13.4663 20.6622 13.6629 21.3775C14.9811 26.1742 20.21 30.1305 25.2065 30.0028C30.3158 29.8722 34.0666 27.3745 36.5447 23.0068C37.9486 20.5323 39.2656 18.0084 40.5826 15.4846C41.1358 14.4243 41.6891 13.364 42.2488 12.3074C42.2723 12.2631 42.2986 12.219 42.325 12.1747C42.4485 11.9676 42.5755 11.7546 42.4394 11.4773C42.1637 11.3702 41.9006 11.4425 41.6402 11.5141C41.5933 11.527 41.5464 11.5399 41.4996 11.5517C41.1245 11.6462 40.7502 11.7439 40.3759 11.8416C39.9341 11.957 39.4924 12.0723 39.0494 12.1823C39.031 12.1869 39.0124 12.1917 38.9937 12.1965ZM24.6571 13.3945C24.8218 13.9502 24.9967 14.5317 25.182 15.1389C25.3672 15.7358 25.5576 16.3379 25.7532 16.9451C25.959 17.542 26.1597 18.1337 26.3552 18.7204C26.561 19.2967 26.7566 19.8421 26.9418 20.3567C27.0962 19.801 27.2454 19.1989 27.3895 18.5506C27.5336 17.8919 27.6777 17.2127 27.8218 16.5128C27.9658 15.8027 28.1048 15.0823 28.2386 14.3516C28.3826 13.6209 28.5164 12.9005 28.6399 12.1904H30.6468C30.3539 13.7636 30.0338 15.2892 29.6865 16.7671H30.9474V18.3148H29.3073C28.9 19.9018 28.4512 21.4263 27.9607 22.8884H26.1082C25.3055 20.8095 24.5285 18.5403 23.7772 16.0806C23.3964 17.3259 23.0105 18.5094 22.6194 19.6312C22.2283 20.7529 21.8372 21.8387 21.4462 22.8884H19.5937C19.094 21.4263 18.64 19.9018 18.2318 18.3148H16.598V16.7671H17.8577C17.5172 15.2892 17.2005 13.7636 16.9076 12.1904H18.9916C19.1151 12.8902 19.2438 13.6055 19.3776 14.3362C19.5216 15.0669 19.6657 15.7873 19.8098 16.4974C19.9642 17.1972 20.1186 17.8765 20.2729 18.5351C20.4273 19.1938 20.5817 19.801 20.736 20.3567C20.9316 19.8318 21.1271 19.2812 21.3227 18.7049C21.5285 18.1183 21.7292 17.5265 21.9247 16.9296C22.1203 16.3224 22.3055 15.7204 22.4805 15.1235C22.6657 14.5266 22.8355 13.9502 22.9899 13.3945H24.6571Z" fill="#FFA800"/>
</g>
<defs>
<filter id="filter0_d_909_10202" x="0" y="0" width="136.236" height="39" filterUnits="userSpaceOnUse" color-interpolation-filters="sRGB">
<feFlood flood-opacity="0" result="BackgroundImageFix"/>
<feColorMatrix in="SourceAlpha" type="matrix" values="0 0 0 0 0 0 0 0 0 0 0 0 0 0 0 0 0 0 127 0" result="hardAlpha"/>
<feOffset dy="2"/>
<feGaussianBlur stdDeviation="2.5"/>
<feComposite in2="hardAlpha" operator="out"/>
<feColorMatrix type="matrix" values="0 0 0 0 1 0 0 0 0 1 0 0 0 0 1 0 0 0 0.25 0"/>
<feBlend mode="normal" in2="BackgroundImageFix" result="effect1_dropShadow_909_10202"/>
<feBlend mode="normal" in="SourceGraphic" in2="effect1_dropShadow_909_10202" result="shape"/>
</filter>
</defs>
</svg>
